<svg width="328" height="262" viewBox="0 0 328 262" fill="none" xmlns="http://www.w3.org/2000/svg">
<path d="M87.7912 49.125H114.8V98.25H57.0413L72.6212 59.4105C75.0812 53.2187 81.0775 49.125 87.7912 49.125ZM139.4 98.25V49.125H181.015C185.986 49.125 190.701 51.3766 193.828 55.2656L228.267 98.25H139.4ZM270.702 98.7617L219.453 34.7969C210.125 23.1297 195.98 16.375 181.015 16.375H87.7912C67.65 16.375 49.5587 28.6051 42.1275 47.2316L20.8075 100.502C8.61 105.312 0 117.132 0 131V188.312C0 197.37 7.32875 204.688 16.4 204.688H33.4663C37.3613 227.92 57.605 245.625 82 245.625C106.395 245.625 126.639 227.92 130.534 204.688H197.466C201.361 227.92 221.605 245.625 246 245.625C270.395 245.625 290.639 227.92 294.534 204.688H311.6C320.671 204.688 328 197.37 328 188.312V163.75C328 130.386 302.99 102.855 270.702 98.7617ZM269.216 204.688C265.834 214.205 256.711 221.062 246 221.062C235.289 221.062 226.166 214.205 222.784 204.688C221.861 202.129 221.4 199.366 221.4 196.5C221.4 182.939 232.419 171.938 246 171.938C259.581 171.938 270.6 182.939 270.6 196.5C270.6 199.366 270.087 202.129 269.216 204.688V204.688ZM82 221.062C71.2887 221.062 62.1662 214.205 58.7837 204.688C57.8612 202.129 57.4 199.366 57.4 196.5C57.4 182.939 68.4187 171.938 82 171.938C95.5812 171.938 106.6 182.939 106.6 196.5C106.6 199.366 106.087 202.129 105.216 204.688C101.834 214.205 92.7112 221.062 82 221.062Z" fill="#391A52"/>
<path d="M65.6911 127.818L68.3629 146.994H68.5803L77.6186 127.818H84.701L71.5206 154H63.0959L58.6087 127.818H65.6911ZM83.9531 154L87.2259 134.364H90.1406L89.6293 137.33H89.8338C90.3452 136.358 91.125 135.57 92.1733 134.964C93.2216 134.359 94.3338 134.057 95.5099 134.057C95.7401 134.057 96.017 134.061 96.3409 134.07C96.6648 134.07 96.9162 134.082 97.0952 134.108L96.5838 137.176C96.4815 137.151 96.2514 137.112 95.8935 137.061C95.5355 137.001 95.152 136.972 94.7429 136.972C93.7884 136.972 92.9063 137.172 92.0966 137.572C91.2869 137.964 90.6094 138.51 90.0639 139.209C89.5185 139.899 89.169 140.687 89.0156 141.574L86.9702 154H83.9531ZM111.123 145.972L113.066 134.364H116.083L112.81 154H109.793L110.355 150.676H110.151C109.537 151.673 108.681 152.521 107.581 153.22C106.482 153.911 105.191 154.256 103.708 154.256C102.48 154.256 101.432 153.987 100.563 153.45C99.7021 152.905 99.0884 152.087 98.7219 150.996C98.364 149.896 98.3214 148.511 98.5941 146.841L100.691 134.364H103.708L101.662 146.636C101.432 148.068 101.65 149.21 102.314 150.062C102.979 150.915 103.938 151.341 105.191 151.341C105.941 151.341 106.733 151.149 107.569 150.766C108.412 150.382 109.162 149.794 109.819 149.001C110.483 148.209 110.918 147.199 111.123 145.972ZM118.336 154L121.609 134.364H124.523L124.012 137.432H124.268C124.856 136.384 125.653 135.57 126.658 134.99C127.673 134.402 128.819 134.108 130.097 134.108C131.376 134.108 132.403 134.402 133.178 134.99C133.954 135.57 134.495 136.384 134.802 137.432H135.006C135.671 136.409 136.558 135.599 137.665 135.003C138.782 134.406 140.043 134.108 141.45 134.108C143.188 134.108 144.526 134.658 145.464 135.757C146.41 136.857 146.691 138.557 146.308 140.858L144.109 154H141.092L143.29 140.858C143.521 139.401 143.29 138.365 142.6 137.751C141.918 137.129 141.04 136.818 139.967 136.818C138.586 136.818 137.448 137.232 136.553 138.058C135.658 138.885 135.109 139.937 134.904 141.216L132.756 154H129.688L131.938 140.551C132.117 139.426 131.904 138.523 131.299 137.841C130.694 137.159 129.816 136.818 128.665 136.818C127.881 136.818 127.114 137.031 126.364 137.457C125.614 137.875 124.971 138.455 124.434 139.196C123.897 139.929 123.552 140.773 123.398 141.727L121.353 154H118.336ZM159.136 127.818L161.808 146.994H162.026L171.064 127.818H178.146L164.966 154H156.541L152.054 127.818H159.136ZM177.398 154L180.671 134.364H183.586L183.075 137.33H183.279C183.79 136.358 184.57 135.57 185.619 134.964C186.667 134.359 187.779 134.057 188.955 134.057C189.185 134.057 189.462 134.061 189.786 134.07C190.11 134.07 190.362 134.082 190.54 134.108L190.029 137.176C189.927 137.151 189.697 137.112 189.339 137.061C188.981 137.001 188.597 136.972 188.188 136.972C187.234 136.972 186.352 137.172 185.542 137.572C184.732 137.964 184.055 138.51 183.509 139.209C182.964 139.899 182.614 140.687 182.461 141.574L180.415 154H177.398ZM204.568 145.972L206.511 134.364H209.528L206.255 154H203.238L203.801 150.676H203.596C202.983 151.673 202.126 152.521 201.027 153.22C199.927 153.911 198.636 154.256 197.153 154.256C195.926 154.256 194.877 153.987 194.008 153.45C193.147 152.905 192.534 152.087 192.167 150.996C191.809 149.896 191.767 148.511 192.039 146.841L194.136 134.364H197.153L195.108 146.636C194.877 148.068 195.095 149.21 195.76 150.062C196.424 150.915 197.383 151.341 198.636 151.341C199.386 151.341 200.179 151.149 201.014 150.766C201.858 150.382 202.608 149.794 203.264 149.001C203.929 148.209 204.363 147.199 204.568 145.972ZM211.781 154L215.054 134.364H217.969L217.457 137.432H217.713C218.301 136.384 219.098 135.57 220.104 134.99C221.118 134.402 222.264 134.108 223.543 134.108C224.821 134.108 225.848 134.402 226.624 134.99C227.399 135.57 227.94 136.384 228.247 137.432H228.452C229.116 136.409 230.003 135.599 231.111 135.003C232.227 134.406 233.489 134.108 234.895 134.108C236.634 134.108 237.972 134.658 238.909 135.757C239.855 136.857 240.136 138.557 239.753 140.858L237.554 154H234.537L236.736 140.858C236.966 139.401 236.736 138.365 236.045 137.751C235.364 137.129 234.486 136.818 233.412 136.818C232.031 136.818 230.893 137.232 229.999 138.058C229.104 138.885 228.554 139.937 228.349 141.216L226.202 154H223.134L225.384 140.551C225.563 139.426 225.349 138.523 224.744 137.841C224.139 137.159 223.261 136.818 222.111 136.818C221.327 136.818 220.56 137.031 219.81 137.457C219.06 137.875 218.416 138.455 217.879 139.196C217.342 139.929 216.997 140.773 216.844 141.727L214.798 154H211.781Z" fill="white"/>
</svg>
