<svg width="320" height="160" viewBox="0 0 320 160" fill="none" xmlns="http://www.w3.org/2000/svg">
<g clip-path="url(#clip0_3_5)">
<rect width="320" height="160" fill="#5F27CD"/>
<path d="M50.995 134.405C49.285 134.405 47.575 134.345 45.865 134.225C44.185 134.135 42.43 133.895 40.6 133.505V103.265C42.04 102.995 43.615 102.8 45.325 102.68C47.035 102.53 48.625 102.455 50.095 102.455C52.075 102.455 53.89 102.605 55.54 102.905C57.22 103.175 58.66 103.655 59.86 104.345C61.06 105.035 61.99 105.95 62.65 107.09C63.34 108.2 63.685 109.58 63.685 111.23C63.685 113.72 62.485 115.685 60.085 117.125C62.065 117.875 63.415 118.895 64.135 120.185C64.855 121.475 65.215 122.93 65.215 124.55C65.215 127.82 64.015 130.28 61.615 131.93C59.245 133.58 55.705 134.405 50.995 134.405ZM47.44 120.41V128.465C47.95 128.525 48.505 128.57 49.105 128.6C49.705 128.63 50.365 128.645 51.085 128.645C53.185 128.645 54.88 128.345 56.17 127.745C57.46 127.145 58.105 126.035 58.105 124.415C58.105 122.975 57.565 121.955 56.485 121.355C55.405 120.725 53.86 120.41 51.85 120.41H47.44ZM47.44 115.055H50.86C53.02 115.055 54.565 114.785 55.495 114.245C56.425 113.675 56.89 112.775 56.89 111.545C56.89 110.285 56.41 109.4 55.45 108.89C54.49 108.38 53.08 108.125 51.22 108.125C50.62 108.125 49.975 108.14 49.285 108.17C48.595 108.17 47.98 108.2 47.44 108.26V115.055ZM70.8344 102.815H77.8544V134H70.8344V102.815ZM95.4677 134.405C93.7577 134.405 92.0477 134.345 90.3377 134.225C88.6577 134.135 86.9027 133.895 85.0727 133.505V103.265C86.5127 102.995 88.0877 102.8 89.7977 102.68C91.5077 102.53 93.0977 102.455 94.5677 102.455C96.5477 102.455 98.3627 102.605 100.013 102.905C101.693 103.175 103.133 103.655 104.333 104.345C105.533 105.035 106.463 105.95 107.123 107.09C107.813 108.2 108.158 109.58 108.158 111.23C108.158 113.72 106.958 115.685 104.558 117.125C106.538 117.875 107.888 118.895 108.608 120.185C109.328 121.475 109.688 122.93 109.688 124.55C109.688 127.82 108.488 130.28 106.088 131.93C103.718 133.58 100.178 134.405 95.4677 134.405ZM91.9127 120.41V128.465C92.4227 128.525 92.9777 128.57 93.5777 128.6C94.1777 128.63 94.8377 128.645 95.5577 128.645C97.6577 128.645 99.3527 128.345 100.643 127.745C101.933 127.145 102.578 126.035 102.578 124.415C102.578 122.975 102.038 121.955 100.958 121.355C99.8777 120.725 98.3327 120.41 96.3227 120.41H91.9127ZM91.9127 115.055H95.3327C97.4927 115.055 99.0377 114.785 99.9677 114.245C100.898 113.675 101.363 112.775 101.363 111.545C101.363 110.285 100.883 109.4 99.9227 108.89C98.9627 108.38 97.5527 108.125 95.6927 108.125C95.0927 108.125 94.4477 108.14 93.7577 108.17C93.0677 108.17 92.4527 108.2 91.9127 108.26V115.055ZM136.142 127.97V134H115.307V102.815H122.327V127.97H136.142ZM140.663 102.815H147.683V134H140.663V102.815ZM160.797 118.385C160.797 119.915 160.977 121.295 161.337 122.525C161.727 123.755 162.267 124.82 162.957 125.72C163.677 126.59 164.547 127.265 165.567 127.745C166.587 128.225 167.757 128.465 169.077 128.465C170.367 128.465 171.522 128.225 172.542 127.745C173.592 127.265 174.462 126.59 175.152 125.72C175.872 124.82 176.412 123.755 176.772 122.525C177.162 121.295 177.357 119.915 177.357 118.385C177.357 116.855 177.162 115.475 176.772 114.245C176.412 112.985 175.872 111.92 175.152 111.05C174.462 110.15 173.592 109.46 172.542 108.98C171.522 108.5 170.367 108.26 169.077 108.26C167.757 108.26 166.587 108.515 165.567 109.025C164.547 109.505 163.677 110.195 162.957 111.095C162.267 111.965 161.727 113.03 161.337 114.29C160.977 115.52 160.797 116.885 160.797 118.385ZM184.602 118.385C184.602 121.055 184.197 123.41 183.387 125.45C182.607 127.46 181.527 129.155 180.147 130.535C178.767 131.885 177.117 132.905 175.197 133.595C173.307 134.285 171.267 134.63 169.077 134.63C166.947 134.63 164.937 134.285 163.047 133.595C161.157 132.905 159.507 131.885 158.097 130.535C156.687 129.155 155.577 127.46 154.767 125.45C153.957 123.41 153.552 121.055 153.552 118.385C153.552 115.715 153.972 113.375 154.812 111.365C155.652 109.325 156.777 107.615 158.187 106.235C159.627 104.855 161.277 103.82 163.137 103.13C165.027 102.44 167.007 102.095 169.077 102.095C171.207 102.095 173.217 102.44 175.107 103.13C176.997 103.82 178.647 104.855 180.057 106.235C181.467 107.615 182.577 109.325 183.387 111.365C184.197 113.375 184.602 115.715 184.602 118.385ZM189.779 104.435L196.484 103.355V110.33H204.539V115.91H196.484V124.235C196.484 125.645 196.724 126.77 197.204 127.61C197.714 128.45 198.719 128.87 200.219 128.87C200.939 128.87 201.674 128.81 202.424 128.69C203.204 128.54 203.909 128.345 204.539 128.105L205.484 133.325C204.674 133.655 203.774 133.94 202.784 134.18C201.794 134.42 200.579 134.54 199.139 134.54C197.309 134.54 195.794 134.3 194.594 133.82C193.394 133.31 192.434 132.62 191.714 131.75C190.994 130.85 190.484 129.77 190.184 128.51C189.914 127.25 189.779 125.855 189.779 124.325V104.435ZM207.995 122.345C207.995 120.245 208.31 118.415 208.94 116.855C209.6 115.265 210.455 113.945 211.505 112.895C212.555 111.845 213.755 111.05 215.105 110.51C216.485 109.97 217.895 109.7 219.335 109.7C222.695 109.7 225.35 110.735 227.3 112.805C229.25 114.845 230.225 117.86 230.225 121.85C230.225 122.24 230.21 122.675 230.18 123.155C230.15 123.605 230.12 124.01 230.09 124.37H214.88C215.03 125.75 215.675 126.845 216.815 127.655C217.955 128.465 219.485 128.87 221.405 128.87C222.635 128.87 223.835 128.765 225.005 128.555C226.205 128.315 227.18 128.03 227.93 127.7L228.83 133.145C228.47 133.325 227.99 133.505 227.39 133.685C226.79 133.865 226.115 134.015 225.365 134.135C224.645 134.285 223.865 134.405 223.025 134.495C222.185 134.585 221.345 134.63 220.505 134.63C218.375 134.63 216.515 134.315 214.925 133.685C213.365 133.055 212.06 132.2 211.01 131.12C209.99 130.01 209.225 128.705 208.715 127.205C208.235 125.705 207.995 124.085 207.995 122.345ZM223.745 119.78C223.715 119.21 223.61 118.655 223.43 118.115C223.28 117.575 223.025 117.095 222.665 116.675C222.335 116.255 221.9 115.91 221.36 115.64C220.85 115.37 220.205 115.235 219.425 115.235C218.675 115.235 218.03 115.37 217.49 115.64C216.95 115.88 216.5 116.21 216.14 116.63C215.78 117.05 215.495 117.545 215.285 118.115C215.105 118.655 214.97 119.21 214.88 119.78H223.745ZM234.274 122.165C234.274 120.455 234.544 118.85 235.084 117.35C235.654 115.82 236.464 114.5 237.514 113.39C238.564 112.25 239.839 111.35 241.339 110.69C242.839 110.03 244.549 109.7 246.469 109.7C247.729 109.7 248.884 109.82 249.934 110.06C250.984 110.27 252.004 110.585 252.994 111.005L251.599 116.36C250.969 116.12 250.279 115.91 249.529 115.73C248.779 115.55 247.939 115.46 247.009 115.46C245.029 115.46 243.544 116.075 242.554 117.305C241.594 118.535 241.114 120.155 241.114 122.165C241.114 124.295 241.564 125.945 242.464 127.115C243.394 128.285 244.999 128.87 247.279 128.87C248.089 128.87 248.959 128.795 249.889 128.645C250.819 128.495 251.674 128.255 252.454 127.925L253.399 133.415C252.619 133.745 251.644 134.03 250.474 134.27C249.304 134.51 248.014 134.63 246.604 134.63C244.444 134.63 242.584 134.315 241.024 133.685C239.464 133.025 238.174 132.14 237.154 131.03C236.164 129.92 235.429 128.615 234.949 127.115C234.499 125.585 234.274 123.935 234.274 122.165ZM257.899 134V100.16L264.604 99.08V110.42C265.054 110.27 265.624 110.135 266.314 110.015C267.034 109.865 267.724 109.79 268.384 109.79C270.304 109.79 271.894 110.06 273.154 110.6C274.444 111.11 275.464 111.845 276.214 112.805C276.994 113.765 277.534 114.905 277.834 116.225C278.164 117.545 278.329 119.015 278.329 120.635V134H271.624V121.445C271.624 119.285 271.339 117.755 270.769 116.855C270.229 115.955 269.209 115.505 267.709 115.505C267.109 115.505 266.539 115.565 265.999 115.685C265.489 115.775 265.024 115.88 264.604 116V134H257.899Z" fill="white"/>
<path d="M151.259 9.75697C145.622 6.99567 134.514 12.3312 131.323 17.0283C129.901 19.1302 130.002 20.645 130.002 21.5043V67.4795L171.659 91.6056L179.493 87.6245V42.8503L136.722 19.9938C139.017 17.3052 144.179 14.0267 148.049 15.3435L186.147 34.3082L186.147 84.1869L194 80.1987V30.321L151.259 9.75697Z" fill="white"/>
</g>
<defs>
<clipPath id="clip0_3_5">
<rect width="320" height="160" fill="white"/>
</clipPath>
</defs>
</svg>
